<?xml version="1.0" encoding="utf-8"?>
<!-- Generator: Adobe Illustrator 24.1.0, SVG Export Plug-In . SVG Version: 6.00 Build 0)  -->
<svg version="1.1" id="Layer_1" xmlns="http://www.w3.org/2000/svg" xmlns:xlink="http://www.w3.org/1999/xlink" x="0px" y="0px"
	 width="20px" height="20px" viewBox="0 0 20 20" style="enable-background:new 0 0 20 20;" xml:space="preserve">
<style type="text/css">
	.st0{fill:none;}
	.st1{fill:#A1A5A9;}
</style>
<desc>Created with Sketch.</desc>
<g>
	<rect x="2" y="0" class="st0" width="25.1" height="25.5"/>
	<path class="st1" d="M2,0h3.4v3.4H2V0z M2,4.1h3.4v3.4H2V4.1z M2,8.2h3.4v3.4H2V8.2z M2,12.4h3.4v3.4H2V12.4z M2,16.5h3.4v3.4
		L2,16.5z M6.2,4.1h3.4v3.4H6.2V4.1z M6.2,16.5h3.4v3.4H6.2V16.5z M10.3,4.1h3.4v3.4h-3.4V4.1z M10.3,16.5h3.4v3.4h-3.4V16.5z
		 M14.4,4.1l3.4,3.4h-3.4V4.1z M14.4,8.2h3.4v3.4h-3.4V8.2z M14.4,12.4h3.4v3.4h-3.4V12.4z M14.4,16.5h3.4l-3.4,3.4V16.5z"/>
</g>
</svg>
